#!OML:ASF E:\Mandelcareful walks\Project 1\Capture day 1\Session 1\Subject1.ASF
:FULLY-SPECIFIED
:DEGREES
83
root 6.42903 16.0714 -0.712881 -89.2727 -85.9057 98.3274
lowerback 28.4626 0.318971 0.585615
upperback 4.62859 0.330867 1.37478
thorax -10.5595 -0.0155592 1.12808
lowerneck -26.8413 -5.40391 -9.67867
upperneck 23.6498 -5.7773 6.93531
head 12.8479 -2.50766 3.19879
rclavicle -7.95139e-015 0
rhumerus -29.7642 3.18401 -78.4937
rradius 65.0492
rwrist -14.5173
rhand -10.1755 -32.5696
rfingers 7.12502
rthumb 15.8146 -61.9436
lclavicle -7.95139e-015 0
lhumerus -17.4887 -41.0187 96.475
lradius 72.6903
lwrist 16.5702
lhand -18.6265 -10.2921
lfingers 7.12502
lthumb 7.66568 19.5489
rfemur -28.1391 -15.734 3.39867
rtibia 38.9444
rfoot -12.2184 -13.6378
rtoes -11.8979
lfemur -31.8617 11.4519 -11.5844
ltibia 43.9776
lfoot -14.7694 4.27699
ltoes -9.02951
84
root 6.43274 16.0652 -0.695885 -90.6277 -85.5803 99.7716
lowerback 28.3238 0.46066 0.525827
upperback 4.86134 0.460755 1.25762
thorax -10.2241 0.0378595 0.980923
lowerneck -26.9647 -5.40981 -9.55453
upperneck 23.5926 -5.82025 6.94163
head 12.8485 -2.51008 3.17069
rclavicle -2.38542e-015 -3.97569e-015
rhumerus -29.4536 2.42901 -78.1577
rradius 65.256
rwrist -15.0858
rhand -10.0154 -33.2883
rfingers 7.12502
rthumb 15.9688 -62.6501
lclavicle -2.38542e-015 -3.97569e-015
lhumerus -16.7361 -41.5236 95.9351
lradius 73.3556
lwrist 16.7231
lhand -18.4161 -9.88944
lfingers 7.12502
lthumb 7.8687 19.9441
rfemur -28.4309 -15.7486 3.00364
rtibia 39.1654
rfoot -12.1072 -13.5132
rtoes -11.8341
lfemur -32.0722 11.717 -12.0736
ltibia 44.1688
lfoot -14.7764 4.244
ltoes -9.0703
85
root 6.42716 16.0647 -0.678298 -92.9932 -85.2119 102.176
lowerback 27.8456 0.613573 0.405015
upperback 5.32362 0.571589 1.17664
thorax -9.45848 0.0793433 0.916937
lowerneck -27.2489 -5.45846 -9.50329
upperneck 23.4226 -5.85591 6.91814
head 12.8351 -2.51487 3.1412
rclavicle -6.36111e-015 3.18055e-015
rhumerus -28.805 1.70292 -77.8056
rradius 65.4407
rwrist -15.4537
rhand -9.77869 -33.8668
rfingers 7.12502
rthumb 16.1968 -63.2101
lclavicle -6.36111e-015 3.18055e-015
lhumerus -15.5176 -42.1459 95.0286
lradius 73.9318
lwrist 17.0377
lhand -17.8148 -9.36348
lfingers 7.12502
lthumb 8.44907 20.4475
rfemur -28.6771 -15.7444 2.57329
rtibia 39.4308
rfoot -12.0352 -13.3018
rtoes -11.6825
lfemur -32.1745 12.0647 -12.5867
ltibia 44.3509
lfoot -14.8087 4.27408
ltoes -9.92286
86
root 6.42509 16.0605 -0.665892 -96.7547 -84.9587 105.953
lowerback 27.47 0.749595 0.220758
upperback 5.75765 0.657411 1.21561
thorax -8.7834 0.110759 1.03581
lowerneck -27.2999 -5.52083 -9.72448
upperneck 23.1125 -5.87812 7.10994
head 12.7377 -2.51358 3.24303
rclavicle 7.15625e-015 0
rhumerus -28.1367 1.49015 -77.6059
rradius 65.4981
rwrist -16.5157
rhand -10.7332 -33.4278
rfingers 7.12502
rthumb 15.2775 -62.8436
lclavicle 7.15625e-015 0
lhumerus -14.4474 -42.3939 94.1708
lradius 74.5129
lwrist 17.168
lhand -17.542 -8.44433
lfingers 7.12502
lthumb 8.71232 21.3559
rfemur -29.0081 -15.5114 2.33875
rtibia 39.7403
rfoot -12.042 -13.1774
rtoes -11.4403
lfemur -32.1861 12.5981 -12.899
ltibia 44.5352
lfoot -14.9706 4.22856
ltoes -10.8985
87
root 6.43113 16.0549 -0.65505 -102.676 -84.5727 112.034
lowerback 28.2344 0.916225 -0.190365
upperback 5.27225 0.794103 1.26736
thorax -9.72637 0.198711 1.28582
lowerneck -26.7323 -5.52447 -10.0261
upperneck 23.3627 -5.88732 7.24423
head 12.7472 -2.54407 3.35202
rclavicle 8.74653e-015 1.43125e-014
rhumerus -28.7552 1.77827 -77.5521
rradius 65.9066
rwrist -17.5105
rhand -11.5492 -33.9099
rfingers 7.12502
rthumb 14.4914 -63.3839
lclavicle 8.74653e-015 1.43125e-014
lhumerus -15.4681 -42.1496 94.6803
lradius 75.2588
lwrist 16.947
lhand -17.6123 -7.2365
lfingers 7.12502
lthumb 8.64449 22.5665
rfemur -29.7479 -15.0208 2.15966
rtibia 40.0794
rfoot -11.9043 -13.2383
rtoes -11.554
lfemur -32.3278 13.3701 -13.2431
ltibia 44.6979
lfoot -15.0946 4.17423
ltoes -11.2089
88
root 6.43418 16.0458 -0.638802 -110.493 -83.8871 120.063
lowerback 28.1244 1.12153 -0.637558
upperback 5.3909 0.908143 1.213
thorax -9.54591 0.257801 1.44299
lowerneck -26.9114 -5.69657 -9.97778
upperneck 23.5185 -6.0963 7.08941
head 12.858 -2.64946 3.24373
rclavicle 4.77083e-015 5.56597e-015
rhumerus -28.1304 1.80528 -77.5782
rradius 66.1334
rwrist -17.5718
rhand -11.3414 -34.4417
rfingers 7.12502
rthumb 14.6916 -63.9011
lclavicle 4.77083e-015 5.56597e-015
lhumerus -15.2245 -42.0206 94.1351
lradius 75.9052
lwrist 17.1413
lhand -18.2384 -6.17683
lfingers 7.12502
lthumb 8.0403 23.6502
rfemur -30.7694 -14.4967 1.935
rtibia 40.4207
rfoot -11.5302 -13.1987
rtoes -11.6853
lfemur -32.3327 14.2926 -13.6793
ltibia 44.8455
lfoot -15.3139 4.1976
ltoes -10.2363
89
root 6.42182 16.0406 -0.617119 -119.607 -82.9995 129.243
lowerback 27.2677 1.27519 -0.861542
upperback 6.09556 0.973645 1.08278
thorax -8.32536 0.262013 1.40649
lowerneck -27.4395 -6.04441 -9.82641
upperneck 23.3808 -6.55699 7.01556
head 12.9411 -2.83143 3.09173
rclavicle 1.27222e-014 2.46493e-014
rhumerus -26.4276 1.77634 -77.8193
rradius 65.908
rwrist -17.4523
rhand -10.8806 -34.1966
rfingers 7.12502
rthumb 15.1355 -63.6231
lclavicle 1.27222e-014 2.46493e-014
lhumerus -14.0272 -41.8596 92.6846
lradius 76.4188
lwrist 17.7426
lhand -20.0106 -5.62024
lfingers 7.12502
lthumb 6.32959 24.2652
rfemur -31.6585 -14.0159 1.84439
rtibia 40.7385
rfoot -11.1642 -12.7366
rtoes -11.622
lfemur -31.9836 15.3507 -13.943
ltibia 45.034
lfoot -15.7657 4.35432
ltoes -9.86839
90
root 6.40237 16.0428 -0.594216 -129.328 -81.8608 138.887
lowerback 27.1334 1.36826 -1.13701
upperback 6.30526 0.988636 1.07726
thorax -8.02873 0.259426 1.55572
lowerneck -26.782 -6.58236 -10.4427
upperneck 22.83 -7.30521 7.69178
head 12.7305 -3.13439 3.30737
rclavicle -1.59028e-014 -1.43125e-014
rhumerus -25.3884 2.37517 -78.2323
rradius 65.6704
rwrist -17.4763
rhand -10.5367 -33.5335
rfingers 7.12502
rthumb 15.4667 -62.9348
lclavicle -1.59028e-014 -1.43125e-014
lhumerus -14.4696 -40.9553 92.2732
lradius 76.9473
lwrist 18.158
lhand -21.8401 -6.73965
lfingers 7.12502
lthumb 4.56314 23.1912
rfemur -32.4146 -13.4923 2.00074
rtibia 41.0474
rfoot -10.9069 -11.8406
rtoes -11.4252
lfemur -31.5044 16.5877 -13.9164
ltibia 45.3117
lfoot -16.1922 4.73988
ltoes -11.2126
91
root 6.38563 16.0319 -0.570252 -138.664 -80.2826 148.269
lowerback 26.8285 1.41948 -1.42039
upperback 6.51271 0.956804 1.13785
thorax -7.65003 0.232668 1.79852
lowerneck -26.4761 -7.28643 -10.9672
upperneck 22.6213 -8.24773 8.1373
head 12.7414 -3.54057 3.37921
rclavicle 1.03368e-014 3.26007e-014
rhumerus -24.0627 3.16336 -78.8523
rradius 65.4683
rwrist -16.8943
rhand -9.89677 -33.4325
rfingers 7.12502
rthumb 16.0831 -62.785
lclavicle 1.03368e-014 3.26007e-014
lhumerus -15.2734 -39.4469 92.0083
lradius 77.4089
lwrist 18.5918
lhand -22.2239 -9.19263
lfingers 7.12502
lthumb 4.1926 20.7459
rfemur -33.4567 -12.9251 2.40701
rtibia 41.2513
rfoot -10.5151 -10.6228
rtoes -11.0574
lfemur -31.1103 18.0491 -13.6761
ltibia 45.6918
lfoot -16.6427 5.20619
ltoes -12.0721
92
root 6.36335 16.003 -0.539172 -144.83 -78.1294 154.515
lowerback 26.2966 1.40027 -1.82992
upperback 6.76597 0.79357 1.0679
thorax -7.1016 0.139732 2.01058
lowerneck -25.1821 -8.62318 -12.0541
upperneck 21.2596 -10.1664 9.52853
head 12.3346 -4.33112 3.70861
rclavicle -4.77083e-015 -1.27222e-014
rhumerus -22.4726 3.73295 -79.7167
rradius 65.0853
rwrist -15.7771
rhand -9.39606 -33.5496
rfingers 7.12502
rthumb 16.5652 -62.8626
lclavicle -4.77083e-015 -1.27222e-014
lhumerus -16.286 -37.7142 91.6981
lradius 77.7606
lwrist 18.8426
lhand -22.4828 -10.0175
lfingers 7.12502
lthumb 3.94256 19.9258
rfemur -34.766 -12.627 2.56671
rtibia 41.5792
rfoot -10.1061 -9.03477
rtoes -11.243
lfemur -30.6233 19.4669 -13.7021
ltibia 46.2758
lfoot -17.4594 5.70628
ltoes -12.0568
93
root 6.27753 15.9841 -0.484973 -151.6 -74.878 160.641
lowerback 26.2365 1.53119 -2.08368
upperback 7.10598 0.816224 0.854556
thorax -6.69635 0.119415 1.91615
lowerneck -23.4294 -10.1751 -13.272
upperneck 20.0838 -12.4651 11.017
head 12.0499 -5.32747 4.02479
rclavicle 2.22639e-014 -6.36111e-015
rhumerus -21.034 4.41857 -80.7154
rradius 64.4861
rwrist -14.1217
rhand -8.50527 -32.8218
rfingers 7.12502
rthumb 17.4226 -62.061
lclavicle 2.22639e-014 -6.36111e-015
lhumerus -17.9118 -35.6912 91.5304
lradius 77.9698
lwrist 19.1291
lhand -22.7631 -9.53298
lfingers 7.12502
lthumb 3.67184 20.4151
rfemur -35.462 -11.8761 2.59934
rtibia 41.8963
rfoot -9.82998 -6.60154
rtoes -11.504
lfemur -28.7091 21.1612 -13.4443
ltibia 46.8998
lfoot -18.8929 6.72288
ltoes -12.3163
94
root 6.26724 15.9451 -0.451686 -154.957 -72.4824 164.313
lowerback 26.6633 1.24682 -2.46233
upperback 6.54637 0.379784 0.991242
thorax -7.51233 -0.0580856 2.42728
lowerneck -21.2853 -11.8459 -14.4861
upperneck 18.8434 -15.026 12.5489
head 11.7894 -6.47889 4.30275
rclavicle -3.69739e-014 4.29375e-014
rhumerus -20.3464 6.14734 -81.9292
rradius 64.5324
rwrist -13.5606
rhand -8.40633 -32.5785
rfingers 7.12502
rthumb 17.5178 -61.8093
lclavicle -3.69739e-014 4.29375e-014
lhumerus -20.6235 -33.2479 91.8967
lradius 78.1755
lwrist 19.239
lhand -22.9769 -9.27917
lfingers 7.12502
lthumb 3.4654 20.6724
rfemur -37.2472 -11.7694 3.28536
rtibia 42.5225
rfoot -9.4073 -4.65128
rtoes -10.4838
lfemur -28.7385 22.5084 -13.167
ltibia 47.869
lfoot -19.5518 7.5647
ltoes -13.2747
95
root 6.20088 15.9099 -0.414711 -157.076 -69.3999 166.224
lowerback 26.5517 0.899218 -3.64008
upperback 6.44444 -0.361949 1.31942
thorax -7.51389 -0.399754 3.71162
lowerneck -18.9643 -13.3894 -15.9968
upperneck 17.436 -17.246 13.7169
head 11.4469 -7.57108 4.55898
rclavicle 2.94201e-014 5.56597e-015
rhumerus -19.1173 9.19513 -82.7515
rradius 64.6376
rwrist -13.1527
rhand -7.31645 -32.8403
rfingers 7.12502
rthumb 18.5665 -61.9743
lclavicle 2.94201e-014 5.56597e-015
lhumerus -23.1788 -29.3843 92.5187
lradius 78.0828
lwrist 18.6746
lhand -22.9495 -9.50253
lfingers 7.12502
lthumb 3.4919 20.4486
rfemur -38.6629 -11.847 3.43167
rtibia 43.5388
rfoot -9.27513 -2.08369
rtoes -8.94395
lfemur -27.7105 24.1704 -13.2269
ltibia 48.9589
lfoot -20.7165 8.26527
ltoes -14.0804
96
root 6.20147 15.8388 -0.382959 -160.814 -66.4695 170.538
lowerback 26.7847 0.590157 -3.70032
upperback 6.03511 -0.72006 1.93303
thorax -8.04531 -0.541638 4.5626
lowerneck -15.5928 -14.9778 -17.8252
upperneck 14.7175 -19.7623 16.0268
head 10.7483 -8.81631 5.24099
rclavicle -6.20208e-014 1.51076e-014
rhumerus -17.813 11.745 -83.4922
rradius 64.3072
rwrist -12.5931
rhand -6.56469 -32.3913
rfingers 7.12502
rthumb 19.2894 -61.4547
lclavicle -6.20208e-014 1.51076e-014
lhumerus -26.0066 -26.4038 92.9719
lradius 78.1663
lwrist 18.223
lhand -22.7016 -9.49922
lfingers 7.12502
lthumb 3.73122 20.4479
rfemur -41.1642 -10.7344 5.08501
rtibia 44.45
rfoot -8.87095 -1.14751
rtoes -8.31548
lfemur -27.94 25.8631 -12.1482
ltibia 50.1831
lfoot -21.3852 9.29548
ltoes -14.7744
97
root 6.27017 15.7494 -0.365001 -159.055 -64.8148 170.19
lowerback 26.1904 -0.190239 -4.68135
upperback 5.315 -1.84959 2.44193
thorax -8.38041 -0.995713 6.06685
lowerneck -13.0346 -16.6518 -19.2113
upperneck 12.5717 -22.3599 17.8058
head 10.4227 -10.1109 5.58837
rclavicle 1.19271e-014 -3.77691e-014
rhumerus -16.3803 14.1025 -84.1882
rradius 63.7733
rwrist -11.5159
rhand -6.05573 -31.6599
rfingers 7.12502
rthumb 19.7788 -60.6735
lclavicle 1.19271e-014 -3.77691e-014
lhumerus -28.6387 -24.0514 93.401
lradius 77.9673
lwrist 17.774
lhand -22.1985 -9.17328
lfingers 7.12502
lthumb 4.21713 20.7647
rfemur -44.6356 -11.8602 6.00859
rtibia 45.638
rfoot -8.45316 -0.494329
rtoes -9.72994
lfemur -30.1903 26.9239 -12.9446
ltibia 51.3858
lfoot -21.3088 9.7986
ltoes -16.6941
